Coordinates
version=1
nRows=21
nColumns=27
inDegrees=yes

Units are S.I. units (second, meters, Newtons, ...)
If the header above contains a line with 'inDegrees', this indicates whether rotational values are in degrees (yes) or radians (no).

endheader
time	pelvis_rotation	pelvis_tilt	pelvis_list	pelvis_tx	pelvis_ty	pelvis_tz	hip_flexion_r	hip_adduction_r	hip_rotation_r	knee_angle_r	knee_rotation_r	knee_adduction_r	knee_angle_r_beta	ankle_angle_r	subtalar_angle_r	mtp_angle_r	hip_flexion_l	hip_adduction_l	hip_rotation_l	knee_angle_l	knee_rotation_l	knee_adduction_l	knee_angle_l_beta	ankle_angle_l	subtalar_angle_l	mtp_angle_l
      2.29500000	      2.38301087	    -19.84067219	     -4.16129488	      0.05077684	      0.82893565	     -1.18004820	     34.12768534	    -22.75941245	    -29.77194214	     27.71864347	      0.68625087	      0.68141343	      0.48378159	      1.06364990	      1.99848350	      0.00000000	     42.52986984	    -24.05599908	      1.38014110	     28.16683472	      0.23192223	      2.92114772	      0.49160401	      1.83364652	     -1.74837838	      0.00000000
      2.30000000	      2.67034490	    -20.46323066	     -3.91717282	      0.04915387	      0.82825308	     -1.18054864	     35.06986174	    -23.34422992	    -29.56249258	     28.38011946	      0.88785649	      0.65917781	      0.49532653	      1.15023776	      1.79389747	      0.00000000	     43.57042983	    -23.65142387	      1.96362357	     28.54504086	      0.32552805	      2.94583955	      0.49820495	      1.78050375	     -2.06422491	      0.00000000
      2.30500000	      1.42352337	    -20.18805755	     -2.82359377	      0.04842515	      0.82769469	     -1.18174071	     36.37813909	    -24.17344594	    -26.80275358	     29.27687400	      1.02727921	      0.34817094	      0.51097785	      1.26646808	      1.68678932	      0.00000000	     42.29581347	    -23.30700173	     -0.83621870	     28.30162103	      0.17436173	      2.22478565	      0.49395647	      1.72775108	     -2.28166734	      0.00000000
      2.31000000	      1.75612395	    -21.25290521	     -2.93413728	      0.04605557	      0.82682235	     -1.18186762	     37.72404515	    -24.38661005	    -26.62350424	     29.90751184	      1.23434987	      0.30832101	      0.52198455	      1.25415294	      1.16385912	      0.00000000	     44.17259953	    -23.24076626	      0.34467496	     28.99267436	      0.44711468	      2.36227357	      0.50601763	      1.73355885	     -2.59750028	      0.00000000
      2.31500000	      1.58355446	    -21.33116571	     -2.47698778	      0.04520420	      0.82603697	     -1.18242303	     38.47804872	    -24.97889857	    -25.82447370	     30.62407925	      1.37246562	      0.32082950	      0.53449101	      1.40935236	      1.19003488	      0.00000000	     44.22485642	    -22.99586352	     -0.25855265	     29.21353218	      0.51531652	      1.99232278	      0.50987232	      1.77077436	     -2.86508224	      0.00000000
      2.32000000	      2.26166548	    -22.21605029	     -2.90341396	      0.04336228	      0.82507989	     -1.18222349	     39.17748008	    -25.03621304	    -26.58876104	     31.05004260	      1.55026739	      0.45251905	      0.54192548	      1.39972597	      0.82810799	      0.00000000	     46.22334780	    -23.09753174	      1.51323096	     30.04485694	      0.87207822	      2.16765259	      0.52438168	      1.87779116	     -3.01545257	      0.00000000
      2.32500000	      1.21775861	    -22.28190148	     -1.65689640	      0.04177634	      0.82402730	     -1.18351043	     41.04686195	    -26.05029382	    -23.57157007	     32.22603865	      1.85746639	      0.07847701	      0.56245048	      1.57599129	      0.66634781	      0.00000000	     45.51214620	    -22.56082461	     -0.89915668	     30.01438186	      0.74651232	      1.57363749	      0.52384979	      1.80206868	     -3.35519567	      0.00000000
      2.33000000	      1.31037136	    -22.87406602	     -1.53613620	      0.04003017	      0.82291826	     -1.18374496	     42.14859649	    -26.40108213	    -23.04911590	     32.92034977	      2.06765653	      0.07392682	      0.57456849	      1.66254988	      0.40434304	      0.00000000	     46.60193080	    -22.50233321	     -0.55877711	     30.59649575	      0.96347212	      1.42796629	      0.53400959	      1.86694822	     -3.61665036	      0.00000000
      2.33500000	      0.68160198	    -24.89217045	     -1.24728677	      0.03486287	      0.82081193	     -1.18416678	     45.92846288	    -26.59051866	    -20.20478881	     34.33607517	      2.36533133	     -1.05877399	      0.59927756	      1.78134598	      0.39599830	      0.00000000	     49.34655888	    -22.58862540	     -0.28387806	     31.74524219	      1.35553035	      1.78673153	      0.55405900	      2.04231970	     -3.73691127	      0.00000000
      2.34000000	      1.03647092	    -23.87640694	     -0.72300978	      0.03645736	      0.82035622	     -1.18471612	     44.85842506	    -27.47555056	    -20.75778361	     34.62345781	      2.67189082	     -0.09473476	      0.60429334	      1.87124498	     -0.15130646	      0.00000000	     48.10141958	    -22.13007525	     -1.09643474	     31.59223400	      1.25228723	      0.92239973	      0.55138850	      1.99583946	     -4.16561578	      0.00000000
      2.34500000	      0.80626530	    -24.19836417	     -0.34262926	      0.03496677	      0.81900646	     -1.18509515	     46.06726118	    -27.91265237	    -19.57179396	     35.44667401	      2.94549943	     -0.11820274	      0.61866117	      1.98749230	     -0.40420767	      0.00000000	     48.60652920	    -22.06382651	     -1.59660728	     32.07544117	      1.40508612	      0.51473878	      0.55982206	      2.04441694	     -4.46295413	      0.00000000
      2.35000000	      0.69582127	    -25.82042502	     -0.20888243	      0.03077029	      0.81700702	     -1.18522526	     48.86503548	    -28.11616536	    -17.81013883	     36.54927759	      3.33864033	     -0.73753239	      0.63790523	      2.01669443	     -0.78309838	      0.00000000	     51.05371990	    -22.08751543	     -0.69878490	     33.04117083	      1.85821743	      0.80511135	      0.57667722	      2.08420194	     -4.84626307	      0.00000000
      2.35500000	      0.23964667	    -26.57174776	      0.01469595	      0.02826232	      0.81524103	     -1.18539769	     50.77877247	    -28.22720761	    -16.09742738	     37.46101172	      3.65311143	     -0.96425106	      0.65381800	      2.00537253	     -1.19683902	      0.00000000	     52.16868340	    -22.31328225	     -1.00833624	     33.78996415	      2.17035594	      0.57423822	      0.58974613	      2.23292166	     -5.12186985	      0.00000000
      2.36000000	      0.21188439	    -25.47600101	      1.07168818	      0.02980129	      0.81427605	     -1.18630577	     50.36571530	    -29.41604106	    -15.46145663	     38.14222438	      3.99740253	     -0.20287162	      0.66570740	      2.34353466	     -1.36083058	      0.00000000	     50.51511418	    -21.68023703	     -3.03533365	     33.69939178	      1.88528126	     -0.61708474	      0.58816534	      2.27413103	     -5.45490719	      0.00000000
      2.36500000	     -0.00828939	    -25.94870163	      1.36969756	      0.02789735	      0.81256927	     -1.18648074	     51.81311779	    -29.68892706	    -14.16062007	     38.98666053	      4.32391382	     -0.21283260	      0.68044559	      2.39627709	     -1.73873365	      0.00000000	     51.29959617	    -21.74192984	     -3.30369867	     34.32118275	      2.10566452	     -0.91119797	      0.59901764	      2.38688881	     -5.69024351	      0.00000000
      2.37000000	     -0.10928443	    -25.99963972	      1.62312048	      0.02699247	      0.81110513	     -1.18659841	     52.53241501	    -30.00981851	    -13.39724652	     39.65874353	      4.59403702	     -0.02302346	      0.69217565	      2.52736308	     -2.02870876	      0.00000000	     51.56989484	    -21.79523247	     -3.67768228	     34.79269297	      2.28082724	     -1.42574865	      0.60724705	      2.47099576	     -6.01843906	      0.00000000
      2.37500000	     -0.22536954	    -26.90004298	      1.61227342	      0.02435311	      0.80900388	     -1.18644598	     54.31383124	    -30.04380785	    -12.28690976	     40.53485984	      4.92157105	     -0.20408114	      0.70746677	      2.56143101	     -2.33683321	      0.00000000	     53.17633900	    -22.12126553	     -3.23736433	     35.72559449	      2.70946349	     -1.53324266	      0.62352925	      2.65820654	     -6.25127352	      0.00000000
      2.38000000	     -0.18357820	    -27.36749638	      1.63586264	      0.02269927	      0.80721696	     -1.18634986	     55.37115671	    -30.23112852	    -11.72326215	     41.24910756	      5.20952541	     -0.08674474	      0.71993274	      2.63248904	     -2.66702826	      0.00000000	     54.21708389	    -22.30523295	     -2.93006940	     36.44242013	      3.01388036	     -1.81151699	      0.63604022	      2.79748153	     -6.49318060	      0.00000000
      2.38500000	      0.28141807	    -27.72648362	      1.68303359	      0.02139868	      0.80552051	     -1.18631393	     55.99712247	    -30.71706814	    -11.90237229	     41.91949079	      5.46661327	      0.31189872	      0.73163314	      2.74594270	     -3.06031215	      0.00000000	     55.28640046	    -22.20585021	     -2.16004434	     37.09324731	      3.29090186	     -1.99195112	      0.64739930	      2.86277398	     -6.80468809	      0.00000000
      2.39000000	      0.43917901	    -27.97858737	      1.59334653	      0.02023043	      0.80387599	     -1.18611974	     56.57248788	    -30.90196160	    -11.80950696	     42.49902700	      5.67834522	      0.53388849	      0.74174795	      2.80795824	     -3.29558526	      0.00000000	     56.14574622	    -22.40732439	     -1.75665736	     37.75590110	      3.55963207	     -2.32814321	      0.65896479	      3.00860961	     -6.94898713	      0.00000000
      2.39500000	      0.96826329	    -28.12963468	      1.52615372	      0.01939633	      0.80235575	     -1.18601640	     56.74413270	    -31.36177738	    -12.39772473	     43.03050791	      5.87458724	      1.06828948	      0.75102404	      2.88205577	     -3.73653829	      0.00000000	     56.99856596	    -22.33801691	     -0.95144137	     38.32570983	      3.81854616	     -2.62433106	      0.66890982	      3.07797336	     -7.29015789	      0.00000000
